<mxfile host="Electron" modified="2023-07-09T08:05:43.840Z" agent="Mozilla/5.0 (Windows NT 10.0; Win64; x64) AppleWebKit/537.36 (KHTML, like Gecko) draw.io/21.5.0 Chrome/112.0.5615.204 Electron/24.5.1 Safari/537.36" etag="S2-avaoUAlLdOZX3nom4" version="21.5.0" type="device">
  <diagram name="第 1 页" id="9p2jGRy3xzVtqF-vGPyH">
    <mxGraphModel dx="1343" dy="1995" grid="1" gridSize="10" guides="1" tooltips="1" connect="1" arrows="1" fold="1" page="1" pageScale="1" pageWidth="1169" pageHeight="827" math="0" shadow="0">
      <root>
        <mxCell id="0" />
        <mxCell id="1" parent="0" />
        <mxCell id="J9Y-vJ6aNMcpI7hS-cD3-170" value="" style="shape=trapezoid;perimeter=trapezoidPerimeter;whiteSpace=wrap;html=1;fixedSize=1;rotation=90;size=10;" vertex="1" parent="1">
          <mxGeometry x="215" y="190" width="60" height="10" as="geometry" />
        </mxCell>
        <mxCell id="J9Y-vJ6aNMcpI7hS-cD3-172" value="" style="shape=trapezoid;perimeter=trapezoidPerimeter;whiteSpace=wrap;html=1;fixedSize=1;rotation=90;size=10;" vertex="1" parent="1">
          <mxGeometry x="215" y="310" width="60" height="10" as="geometry" />
        </mxCell>
        <mxCell id="J9Y-vJ6aNMcpI7hS-cD3-173" value="" style="shape=trapezoid;perimeter=trapezoidPerimeter;whiteSpace=wrap;html=1;fixedSize=1;rotation=90;size=10;" vertex="1" parent="1">
          <mxGeometry x="215" y="430" width="60" height="10" as="geometry" />
        </mxCell>
        <mxCell id="J9Y-vJ6aNMcpI7hS-cD3-174" value="" style="shape=trapezoid;perimeter=trapezoidPerimeter;whiteSpace=wrap;html=1;fixedSize=1;rotation=90;size=10;" vertex="1" parent="1">
          <mxGeometry x="215" y="550" width="60" height="10" as="geometry" />
        </mxCell>
        <mxCell id="J9Y-vJ6aNMcpI7hS-cD3-175" value="" style="endArrow=none;html=1;rounded=0;entryX=0.25;entryY=1;entryDx=0;entryDy=0;" edge="1" parent="1" target="J9Y-vJ6aNMcpI7hS-cD3-170">
          <mxGeometry width="50" height="50" relative="1" as="geometry">
            <mxPoint x="145" y="180" as="sourcePoint" />
            <mxPoint x="245" y="180" as="targetPoint" />
          </mxGeometry>
        </mxCell>
        <mxCell id="J9Y-vJ6aNMcpI7hS-cD3-176" value="&lt;font style=&quot;font-size: 8px;&quot;&gt;piep0_result_wb_w[31:0]&lt;/font&gt;" style="text;strokeColor=none;align=center;fillColor=none;html=1;verticalAlign=middle;whiteSpace=wrap;rounded=0;" vertex="1" parent="1">
          <mxGeometry x="145" y="167" width="90" height="10" as="geometry" />
        </mxCell>
        <mxCell id="J9Y-vJ6aNMcpI7hS-cD3-177" value="" style="endArrow=none;html=1;rounded=0;entryX=0.25;entryY=1;entryDx=0;entryDy=0;exitX=0.997;exitY=0.113;exitDx=0;exitDy=0;exitPerimeter=0;" edge="1" parent="1" source="J9Y-vJ6aNMcpI7hS-cD3-179">
          <mxGeometry width="50" height="50" relative="1" as="geometry">
            <mxPoint x="145" y="210" as="sourcePoint" />
            <mxPoint x="240" y="210" as="targetPoint" />
          </mxGeometry>
        </mxCell>
        <mxCell id="J9Y-vJ6aNMcpI7hS-cD3-178" value="&lt;font style=&quot;font-size: 8px;&quot;&gt;ra0_value_o[31:0]&lt;/font&gt;" style="text;strokeColor=none;align=center;fillColor=none;html=1;verticalAlign=middle;whiteSpace=wrap;rounded=0;" vertex="1" parent="1">
          <mxGeometry x="169" y="197" width="65" height="10" as="geometry" />
        </mxCell>
        <mxCell id="J9Y-vJ6aNMcpI7hS-cD3-179" value="Regfile" style="rounded=1;whiteSpace=wrap;html=1;" vertex="1" parent="1">
          <mxGeometry x="40" y="160" width="60" height="440" as="geometry" />
        </mxCell>
        <mxCell id="J9Y-vJ6aNMcpI7hS-cD3-184" value="" style="endArrow=none;html=1;rounded=0;entryX=0.25;entryY=1;entryDx=0;entryDy=0;" edge="1" parent="1">
          <mxGeometry width="50" height="50" relative="1" as="geometry">
            <mxPoint x="145" y="300" as="sourcePoint" />
            <mxPoint x="240" y="300" as="targetPoint" />
          </mxGeometry>
        </mxCell>
        <mxCell id="J9Y-vJ6aNMcpI7hS-cD3-185" value="&lt;font style=&quot;font-size: 8px;&quot;&gt;piep0_result_wb_w[31:0]&lt;/font&gt;" style="text;strokeColor=none;align=center;fillColor=none;html=1;verticalAlign=middle;whiteSpace=wrap;rounded=0;" vertex="1" parent="1">
          <mxGeometry x="145" y="287" width="90" height="10" as="geometry" />
        </mxCell>
        <mxCell id="J9Y-vJ6aNMcpI7hS-cD3-186" value="" style="endArrow=none;html=1;rounded=0;entryX=0.25;entryY=1;entryDx=0;entryDy=0;exitX=0.997;exitY=0.113;exitDx=0;exitDy=0;exitPerimeter=0;" edge="1" parent="1">
          <mxGeometry width="50" height="50" relative="1" as="geometry">
            <mxPoint x="100" y="330" as="sourcePoint" />
            <mxPoint x="240" y="330" as="targetPoint" />
          </mxGeometry>
        </mxCell>
        <mxCell id="J9Y-vJ6aNMcpI7hS-cD3-187" value="&lt;font style=&quot;font-size: 8px;&quot;&gt;rb0_value_o[31:0]&lt;/font&gt;" style="text;strokeColor=none;align=center;fillColor=none;html=1;verticalAlign=middle;whiteSpace=wrap;rounded=0;" vertex="1" parent="1">
          <mxGeometry x="170" y="318" width="65" height="10" as="geometry" />
        </mxCell>
        <mxCell id="J9Y-vJ6aNMcpI7hS-cD3-188" value="" style="endArrow=none;html=1;rounded=0;entryX=0.25;entryY=1;entryDx=0;entryDy=0;" edge="1" parent="1">
          <mxGeometry width="50" height="50" relative="1" as="geometry">
            <mxPoint x="145" y="420" as="sourcePoint" />
            <mxPoint x="240" y="420" as="targetPoint" />
          </mxGeometry>
        </mxCell>
        <mxCell id="J9Y-vJ6aNMcpI7hS-cD3-189" value="&lt;font style=&quot;font-size: 8px;&quot;&gt;piep1_result_wb_w[31:0]&lt;/font&gt;" style="text;strokeColor=none;align=center;fillColor=none;html=1;verticalAlign=middle;whiteSpace=wrap;rounded=0;" vertex="1" parent="1">
          <mxGeometry x="145" y="407" width="90" height="10" as="geometry" />
        </mxCell>
        <mxCell id="J9Y-vJ6aNMcpI7hS-cD3-190" value="" style="endArrow=none;html=1;rounded=0;entryX=0.25;entryY=1;entryDx=0;entryDy=0;exitX=0.997;exitY=0.113;exitDx=0;exitDy=0;exitPerimeter=0;" edge="1" parent="1">
          <mxGeometry width="50" height="50" relative="1" as="geometry">
            <mxPoint x="100" y="450" as="sourcePoint" />
            <mxPoint x="240" y="450" as="targetPoint" />
          </mxGeometry>
        </mxCell>
        <mxCell id="J9Y-vJ6aNMcpI7hS-cD3-191" value="&lt;font style=&quot;font-size: 8px;&quot;&gt;ra1_value_o[31:0]&lt;/font&gt;" style="text;strokeColor=none;align=center;fillColor=none;html=1;verticalAlign=middle;whiteSpace=wrap;rounded=0;" vertex="1" parent="1">
          <mxGeometry x="170" y="438" width="65" height="10" as="geometry" />
        </mxCell>
        <mxCell id="J9Y-vJ6aNMcpI7hS-cD3-192" value="" style="endArrow=none;html=1;rounded=0;entryX=0.25;entryY=1;entryDx=0;entryDy=0;" edge="1" parent="1">
          <mxGeometry width="50" height="50" relative="1" as="geometry">
            <mxPoint x="145" y="539" as="sourcePoint" />
            <mxPoint x="240" y="539" as="targetPoint" />
          </mxGeometry>
        </mxCell>
        <mxCell id="J9Y-vJ6aNMcpI7hS-cD3-193" value="&lt;font style=&quot;font-size: 8px;&quot;&gt;piep1_result_wb_w[31:0]&lt;/font&gt;" style="text;strokeColor=none;align=center;fillColor=none;html=1;verticalAlign=middle;whiteSpace=wrap;rounded=0;" vertex="1" parent="1">
          <mxGeometry x="145" y="526" width="90" height="10" as="geometry" />
        </mxCell>
        <mxCell id="J9Y-vJ6aNMcpI7hS-cD3-194" value="" style="endArrow=none;html=1;rounded=0;entryX=0.25;entryY=1;entryDx=0;entryDy=0;exitX=0.997;exitY=0.113;exitDx=0;exitDy=0;exitPerimeter=0;" edge="1" parent="1">
          <mxGeometry width="50" height="50" relative="1" as="geometry">
            <mxPoint x="100" y="569" as="sourcePoint" />
            <mxPoint x="240" y="569" as="targetPoint" />
          </mxGeometry>
        </mxCell>
        <mxCell id="J9Y-vJ6aNMcpI7hS-cD3-195" value="&lt;font style=&quot;font-size: 8px;&quot;&gt;rb1_value_o[31:0]&lt;/font&gt;" style="text;strokeColor=none;align=center;fillColor=none;html=1;verticalAlign=middle;whiteSpace=wrap;rounded=0;" vertex="1" parent="1">
          <mxGeometry x="170" y="557" width="65" height="10" as="geometry" />
        </mxCell>
        <mxCell id="J9Y-vJ6aNMcpI7hS-cD3-196" value="" style="endArrow=none;html=1;rounded=0;" edge="1" parent="1">
          <mxGeometry width="50" height="50" relative="1" as="geometry">
            <mxPoint x="245" y="240" as="sourcePoint" />
            <mxPoint x="244.94" y="220" as="targetPoint" />
          </mxGeometry>
        </mxCell>
        <mxCell id="J9Y-vJ6aNMcpI7hS-cD3-197" value="&lt;font style=&quot;font-size: 8px;&quot;&gt;pipe0_rd_wb_w[4:0]==issua_a_ra_idx_w[4:0]&lt;/font&gt;" style="text;strokeColor=none;align=center;fillColor=none;html=1;verticalAlign=middle;whiteSpace=wrap;rounded=0;" vertex="1" parent="1">
          <mxGeometry x="165" y="240" width="160" height="10" as="geometry" />
        </mxCell>
        <mxCell id="J9Y-vJ6aNMcpI7hS-cD3-200" value="" style="endArrow=none;html=1;rounded=0;" edge="1" parent="1">
          <mxGeometry width="50" height="50" relative="1" as="geometry">
            <mxPoint x="245" y="360" as="sourcePoint" />
            <mxPoint x="244.94" y="340" as="targetPoint" />
          </mxGeometry>
        </mxCell>
        <mxCell id="J9Y-vJ6aNMcpI7hS-cD3-201" value="&lt;font style=&quot;font-size: 8px;&quot;&gt;pipe0_rd_wb_w[4:0]==issua_a_rb_idx_w[4:0]&lt;/font&gt;" style="text;strokeColor=none;align=center;fillColor=none;html=1;verticalAlign=middle;whiteSpace=wrap;rounded=0;" vertex="1" parent="1">
          <mxGeometry x="165" y="360" width="160" height="10" as="geometry" />
        </mxCell>
        <mxCell id="J9Y-vJ6aNMcpI7hS-cD3-202" value="" style="endArrow=none;html=1;rounded=0;" edge="1" parent="1">
          <mxGeometry width="50" height="50" relative="1" as="geometry">
            <mxPoint x="245" y="480" as="sourcePoint" />
            <mxPoint x="244.94" y="460" as="targetPoint" />
          </mxGeometry>
        </mxCell>
        <mxCell id="J9Y-vJ6aNMcpI7hS-cD3-203" value="&lt;font style=&quot;font-size: 8px;&quot;&gt;pipe1_rd_wb_w[4:0]==issua_b_ra_idx_w[4:0]&lt;/font&gt;" style="text;strokeColor=none;align=center;fillColor=none;html=1;verticalAlign=middle;whiteSpace=wrap;rounded=0;" vertex="1" parent="1">
          <mxGeometry x="165" y="480" width="160" height="10" as="geometry" />
        </mxCell>
        <mxCell id="J9Y-vJ6aNMcpI7hS-cD3-204" value="" style="endArrow=none;html=1;rounded=0;" edge="1" parent="1">
          <mxGeometry width="50" height="50" relative="1" as="geometry">
            <mxPoint x="245" y="600" as="sourcePoint" />
            <mxPoint x="244.94" y="580" as="targetPoint" />
          </mxGeometry>
        </mxCell>
        <mxCell id="J9Y-vJ6aNMcpI7hS-cD3-205" value="&lt;font style=&quot;font-size: 8px;&quot;&gt;pipe1_rd_wb_w[4:0]==issua_b_rb_idx_w[4:0]&lt;/font&gt;" style="text;strokeColor=none;align=center;fillColor=none;html=1;verticalAlign=middle;whiteSpace=wrap;rounded=0;" vertex="1" parent="1">
          <mxGeometry x="165" y="600" width="160" height="10" as="geometry" />
        </mxCell>
        <mxCell id="J9Y-vJ6aNMcpI7hS-cD3-206" value="" style="shape=trapezoid;perimeter=trapezoidPerimeter;whiteSpace=wrap;html=1;fixedSize=1;rotation=90;size=10;" vertex="1" parent="1">
          <mxGeometry x="380" y="180" width="60" height="10" as="geometry" />
        </mxCell>
        <mxCell id="J9Y-vJ6aNMcpI7hS-cD3-207" value="" style="shape=trapezoid;perimeter=trapezoidPerimeter;whiteSpace=wrap;html=1;fixedSize=1;rotation=90;size=10;" vertex="1" parent="1">
          <mxGeometry x="380" y="300" width="60" height="10" as="geometry" />
        </mxCell>
        <mxCell id="J9Y-vJ6aNMcpI7hS-cD3-208" value="" style="shape=trapezoid;perimeter=trapezoidPerimeter;whiteSpace=wrap;html=1;fixedSize=1;rotation=90;size=10;" vertex="1" parent="1">
          <mxGeometry x="380" y="420" width="60" height="10" as="geometry" />
        </mxCell>
        <mxCell id="J9Y-vJ6aNMcpI7hS-cD3-209" value="" style="shape=trapezoid;perimeter=trapezoidPerimeter;whiteSpace=wrap;html=1;fixedSize=1;rotation=90;size=10;" vertex="1" parent="1">
          <mxGeometry x="380" y="540" width="60" height="10" as="geometry" />
        </mxCell>
        <mxCell id="J9Y-vJ6aNMcpI7hS-cD3-210" value="" style="endArrow=none;html=1;rounded=0;entryX=0.25;entryY=1;entryDx=0;entryDy=0;" edge="1" parent="1" target="J9Y-vJ6aNMcpI7hS-cD3-206">
          <mxGeometry width="50" height="50" relative="1" as="geometry">
            <mxPoint x="310" y="170" as="sourcePoint" />
            <mxPoint x="410" y="170" as="targetPoint" />
          </mxGeometry>
        </mxCell>
        <mxCell id="J9Y-vJ6aNMcpI7hS-cD3-211" value="&lt;font style=&quot;font-size: 8px;&quot;&gt;piep0_result_e2_w[31:0]&lt;/font&gt;" style="text;strokeColor=none;align=center;fillColor=none;html=1;verticalAlign=middle;whiteSpace=wrap;rounded=0;" vertex="1" parent="1">
          <mxGeometry x="310" y="157" width="90" height="10" as="geometry" />
        </mxCell>
        <mxCell id="J9Y-vJ6aNMcpI7hS-cD3-212" value="" style="endArrow=none;html=1;rounded=0;entryX=0.25;entryY=1;entryDx=0;entryDy=0;exitX=0.59;exitY=0.026;exitDx=0;exitDy=0;exitPerimeter=0;" edge="1" parent="1" source="J9Y-vJ6aNMcpI7hS-cD3-170">
          <mxGeometry width="50" height="50" relative="1" as="geometry">
            <mxPoint x="265" y="200" as="sourcePoint" />
            <mxPoint x="405" y="200" as="targetPoint" />
          </mxGeometry>
        </mxCell>
        <mxCell id="J9Y-vJ6aNMcpI7hS-cD3-213" value="&lt;font style=&quot;font-size: 8px;&quot;&gt;issue_a_ra_value_r[31:0]&lt;/font&gt;" style="text;strokeColor=none;align=center;fillColor=none;html=1;verticalAlign=middle;whiteSpace=wrap;rounded=0;" vertex="1" parent="1">
          <mxGeometry x="307" y="187" width="96" height="10" as="geometry" />
        </mxCell>
        <mxCell id="J9Y-vJ6aNMcpI7hS-cD3-214" value="" style="endArrow=none;html=1;rounded=0;entryX=0.25;entryY=1;entryDx=0;entryDy=0;" edge="1" parent="1">
          <mxGeometry width="50" height="50" relative="1" as="geometry">
            <mxPoint x="310" y="290" as="sourcePoint" />
            <mxPoint x="405" y="290" as="targetPoint" />
          </mxGeometry>
        </mxCell>
        <mxCell id="J9Y-vJ6aNMcpI7hS-cD3-215" value="&lt;font style=&quot;font-size: 8px;&quot;&gt;piep0_result_e2_w[31:0]&lt;/font&gt;" style="text;strokeColor=none;align=center;fillColor=none;html=1;verticalAlign=middle;whiteSpace=wrap;rounded=0;" vertex="1" parent="1">
          <mxGeometry x="310" y="277" width="90" height="10" as="geometry" />
        </mxCell>
        <mxCell id="J9Y-vJ6aNMcpI7hS-cD3-216" value="" style="endArrow=none;html=1;rounded=0;entryX=0.25;entryY=1;entryDx=0;entryDy=0;exitX=0.579;exitY=0.01;exitDx=0;exitDy=0;exitPerimeter=0;" edge="1" parent="1" source="J9Y-vJ6aNMcpI7hS-cD3-172">
          <mxGeometry width="50" height="50" relative="1" as="geometry">
            <mxPoint x="265" y="320" as="sourcePoint" />
            <mxPoint x="405" y="320" as="targetPoint" />
          </mxGeometry>
        </mxCell>
        <mxCell id="J9Y-vJ6aNMcpI7hS-cD3-217" value="&lt;font style=&quot;font-size: 8px;&quot;&gt;issue_a_rb_value_r[31:0]&lt;/font&gt;" style="text;strokeColor=none;align=center;fillColor=none;html=1;verticalAlign=middle;whiteSpace=wrap;rounded=0;" vertex="1" parent="1">
          <mxGeometry x="308" y="308" width="95" height="10" as="geometry" />
        </mxCell>
        <mxCell id="J9Y-vJ6aNMcpI7hS-cD3-218" value="" style="endArrow=none;html=1;rounded=0;entryX=0.25;entryY=1;entryDx=0;entryDy=0;" edge="1" parent="1">
          <mxGeometry width="50" height="50" relative="1" as="geometry">
            <mxPoint x="310" y="410" as="sourcePoint" />
            <mxPoint x="405" y="410" as="targetPoint" />
          </mxGeometry>
        </mxCell>
        <mxCell id="J9Y-vJ6aNMcpI7hS-cD3-219" value="&lt;font style=&quot;font-size: 8px;&quot;&gt;piep1_result_e2_w[31:0]&lt;/font&gt;" style="text;strokeColor=none;align=center;fillColor=none;html=1;verticalAlign=middle;whiteSpace=wrap;rounded=0;" vertex="1" parent="1">
          <mxGeometry x="310" y="397" width="90" height="10" as="geometry" />
        </mxCell>
        <mxCell id="J9Y-vJ6aNMcpI7hS-cD3-220" value="" style="endArrow=none;html=1;rounded=0;entryX=0.25;entryY=1;entryDx=0;entryDy=0;exitX=0.582;exitY=0.01;exitDx=0;exitDy=0;exitPerimeter=0;" edge="1" parent="1" source="J9Y-vJ6aNMcpI7hS-cD3-173">
          <mxGeometry width="50" height="50" relative="1" as="geometry">
            <mxPoint x="265" y="440" as="sourcePoint" />
            <mxPoint x="405" y="440" as="targetPoint" />
          </mxGeometry>
        </mxCell>
        <mxCell id="J9Y-vJ6aNMcpI7hS-cD3-221" value="&lt;font style=&quot;font-size: 8px;&quot;&gt;issue_b_ra_value_r[31:0]&lt;/font&gt;" style="text;strokeColor=none;align=center;fillColor=none;html=1;verticalAlign=middle;whiteSpace=wrap;rounded=0;" vertex="1" parent="1">
          <mxGeometry x="312.5" y="428" width="85" height="10" as="geometry" />
        </mxCell>
        <mxCell id="J9Y-vJ6aNMcpI7hS-cD3-222" value="" style="endArrow=none;html=1;rounded=0;entryX=0.25;entryY=1;entryDx=0;entryDy=0;" edge="1" parent="1">
          <mxGeometry width="50" height="50" relative="1" as="geometry">
            <mxPoint x="310" y="529" as="sourcePoint" />
            <mxPoint x="405" y="529" as="targetPoint" />
          </mxGeometry>
        </mxCell>
        <mxCell id="J9Y-vJ6aNMcpI7hS-cD3-223" value="&lt;font style=&quot;font-size: 8px;&quot;&gt;piep1_result_e2_w[31:0]&lt;/font&gt;" style="text;strokeColor=none;align=center;fillColor=none;html=1;verticalAlign=middle;whiteSpace=wrap;rounded=0;" vertex="1" parent="1">
          <mxGeometry x="310" y="516" width="90" height="10" as="geometry" />
        </mxCell>
        <mxCell id="J9Y-vJ6aNMcpI7hS-cD3-224" value="" style="endArrow=none;html=1;rounded=0;entryX=0.25;entryY=1;entryDx=0;entryDy=0;exitX=0.577;exitY=-0.021;exitDx=0;exitDy=0;exitPerimeter=0;" edge="1" parent="1" source="J9Y-vJ6aNMcpI7hS-cD3-174">
          <mxGeometry width="50" height="50" relative="1" as="geometry">
            <mxPoint x="265" y="559" as="sourcePoint" />
            <mxPoint x="405" y="559" as="targetPoint" />
          </mxGeometry>
        </mxCell>
        <mxCell id="J9Y-vJ6aNMcpI7hS-cD3-225" value="&lt;font style=&quot;font-size: 8px;&quot;&gt;issue_b_rb_value_r[31:0]&lt;/font&gt;" style="text;strokeColor=none;align=center;fillColor=none;html=1;verticalAlign=middle;whiteSpace=wrap;rounded=0;" vertex="1" parent="1">
          <mxGeometry x="307" y="547" width="95" height="10" as="geometry" />
        </mxCell>
        <mxCell id="J9Y-vJ6aNMcpI7hS-cD3-226" value="" style="endArrow=none;html=1;rounded=0;" edge="1" parent="1">
          <mxGeometry width="50" height="50" relative="1" as="geometry">
            <mxPoint x="410" y="230" as="sourcePoint" />
            <mxPoint x="409.94" y="210" as="targetPoint" />
          </mxGeometry>
        </mxCell>
        <mxCell id="J9Y-vJ6aNMcpI7hS-cD3-227" value="&lt;font style=&quot;font-size: 8px;&quot;&gt;pipe0_rd_e2_w[4:0]==issua_a_ra_idx_w[4:0]&lt;/font&gt;" style="text;strokeColor=none;align=center;fillColor=none;html=1;verticalAlign=middle;whiteSpace=wrap;rounded=0;" vertex="1" parent="1">
          <mxGeometry x="330" y="230" width="160" height="10" as="geometry" />
        </mxCell>
        <mxCell id="J9Y-vJ6aNMcpI7hS-cD3-228" value="" style="endArrow=none;html=1;rounded=0;" edge="1" parent="1">
          <mxGeometry width="50" height="50" relative="1" as="geometry">
            <mxPoint x="410" y="350" as="sourcePoint" />
            <mxPoint x="409.94" y="330" as="targetPoint" />
          </mxGeometry>
        </mxCell>
        <mxCell id="J9Y-vJ6aNMcpI7hS-cD3-229" value="&lt;font style=&quot;font-size: 8px;&quot;&gt;pipe0_rd_e2_w[4:0]==issua_a_rb_idx_w[4:0]&lt;/font&gt;" style="text;strokeColor=none;align=center;fillColor=none;html=1;verticalAlign=middle;whiteSpace=wrap;rounded=0;" vertex="1" parent="1">
          <mxGeometry x="330" y="350" width="160" height="10" as="geometry" />
        </mxCell>
        <mxCell id="J9Y-vJ6aNMcpI7hS-cD3-230" value="" style="endArrow=none;html=1;rounded=0;" edge="1" parent="1">
          <mxGeometry width="50" height="50" relative="1" as="geometry">
            <mxPoint x="410" y="470" as="sourcePoint" />
            <mxPoint x="409.94" y="450" as="targetPoint" />
          </mxGeometry>
        </mxCell>
        <mxCell id="J9Y-vJ6aNMcpI7hS-cD3-231" value="&lt;font style=&quot;font-size: 8px;&quot;&gt;pipe1_rd_e2_w[4:0]==issua_b_ra_idx_w[4:0]&lt;/font&gt;" style="text;strokeColor=none;align=center;fillColor=none;html=1;verticalAlign=middle;whiteSpace=wrap;rounded=0;" vertex="1" parent="1">
          <mxGeometry x="330" y="470" width="160" height="10" as="geometry" />
        </mxCell>
        <mxCell id="J9Y-vJ6aNMcpI7hS-cD3-232" value="" style="endArrow=none;html=1;rounded=0;" edge="1" parent="1">
          <mxGeometry width="50" height="50" relative="1" as="geometry">
            <mxPoint x="410" y="590" as="sourcePoint" />
            <mxPoint x="409.94" y="570" as="targetPoint" />
          </mxGeometry>
        </mxCell>
        <mxCell id="J9Y-vJ6aNMcpI7hS-cD3-233" value="&lt;font style=&quot;font-size: 8px;&quot;&gt;pipe1_rd_e2_w[4:0]==issua_b_rb_idx_w[4:0]&lt;/font&gt;" style="text;strokeColor=none;align=center;fillColor=none;html=1;verticalAlign=middle;whiteSpace=wrap;rounded=0;" vertex="1" parent="1">
          <mxGeometry x="330" y="590" width="160" height="10" as="geometry" />
        </mxCell>
        <mxCell id="J9Y-vJ6aNMcpI7hS-cD3-234" value="" style="shape=trapezoid;perimeter=trapezoidPerimeter;whiteSpace=wrap;html=1;fixedSize=1;rotation=90;size=10;" vertex="1" parent="1">
          <mxGeometry x="545" y="169" width="60" height="10" as="geometry" />
        </mxCell>
        <mxCell id="J9Y-vJ6aNMcpI7hS-cD3-235" value="" style="shape=trapezoid;perimeter=trapezoidPerimeter;whiteSpace=wrap;html=1;fixedSize=1;rotation=90;size=10;" vertex="1" parent="1">
          <mxGeometry x="545" y="289" width="60" height="10" as="geometry" />
        </mxCell>
        <mxCell id="J9Y-vJ6aNMcpI7hS-cD3-236" value="" style="shape=trapezoid;perimeter=trapezoidPerimeter;whiteSpace=wrap;html=1;fixedSize=1;rotation=90;size=10;" vertex="1" parent="1">
          <mxGeometry x="545" y="409" width="60" height="10" as="geometry" />
        </mxCell>
        <mxCell id="J9Y-vJ6aNMcpI7hS-cD3-237" value="" style="shape=trapezoid;perimeter=trapezoidPerimeter;whiteSpace=wrap;html=1;fixedSize=1;rotation=90;size=10;" vertex="1" parent="1">
          <mxGeometry x="545" y="529" width="60" height="10" as="geometry" />
        </mxCell>
        <mxCell id="J9Y-vJ6aNMcpI7hS-cD3-238" value="" style="endArrow=none;html=1;rounded=0;entryX=0.25;entryY=1;entryDx=0;entryDy=0;" edge="1" parent="1" target="J9Y-vJ6aNMcpI7hS-cD3-234">
          <mxGeometry width="50" height="50" relative="1" as="geometry">
            <mxPoint x="475" y="159" as="sourcePoint" />
            <mxPoint x="575" y="159" as="targetPoint" />
          </mxGeometry>
        </mxCell>
        <mxCell id="J9Y-vJ6aNMcpI7hS-cD3-239" value="&lt;font style=&quot;font-size: 8px;&quot;&gt;writeback_exec0_value_ii[31:0]&lt;/font&gt;" style="text;strokeColor=none;align=center;fillColor=none;html=1;verticalAlign=middle;whiteSpace=wrap;rounded=0;" vertex="1" parent="1">
          <mxGeometry x="460" y="147" width="105" height="10" as="geometry" />
        </mxCell>
        <mxCell id="J9Y-vJ6aNMcpI7hS-cD3-240" value="" style="endArrow=none;html=1;rounded=0;entryX=0.25;entryY=1;entryDx=0;entryDy=0;exitX=0.59;exitY=0.026;exitDx=0;exitDy=0;exitPerimeter=0;" edge="1" parent="1">
          <mxGeometry width="50" height="50" relative="1" as="geometry">
            <mxPoint x="415" y="189" as="sourcePoint" />
            <mxPoint x="570" y="189" as="targetPoint" />
          </mxGeometry>
        </mxCell>
        <mxCell id="J9Y-vJ6aNMcpI7hS-cD3-241" value="&lt;font style=&quot;font-size: 8px;&quot;&gt;issue_a_ra_value_r[31:0]&lt;/font&gt;" style="text;strokeColor=none;align=center;fillColor=none;html=1;verticalAlign=middle;whiteSpace=wrap;rounded=0;" vertex="1" parent="1">
          <mxGeometry x="472" y="176" width="96" height="10" as="geometry" />
        </mxCell>
        <mxCell id="J9Y-vJ6aNMcpI7hS-cD3-242" value="" style="endArrow=none;html=1;rounded=0;entryX=0.25;entryY=1;entryDx=0;entryDy=0;" edge="1" parent="1">
          <mxGeometry width="50" height="50" relative="1" as="geometry">
            <mxPoint x="475" y="279" as="sourcePoint" />
            <mxPoint x="570" y="279" as="targetPoint" />
          </mxGeometry>
        </mxCell>
        <mxCell id="J9Y-vJ6aNMcpI7hS-cD3-243" value="&lt;font style=&quot;font-size: 8px;&quot;&gt;writeback_exec0_value_i[31:0]&lt;/font&gt;" style="text;strokeColor=none;align=center;fillColor=none;html=1;verticalAlign=middle;whiteSpace=wrap;rounded=0;" vertex="1" parent="1">
          <mxGeometry x="453" y="267" width="115" height="10" as="geometry" />
        </mxCell>
        <mxCell id="J9Y-vJ6aNMcpI7hS-cD3-244" value="" style="endArrow=none;html=1;rounded=0;entryX=0.25;entryY=1;entryDx=0;entryDy=0;exitX=0.579;exitY=0.01;exitDx=0;exitDy=0;exitPerimeter=0;" edge="1" parent="1">
          <mxGeometry width="50" height="50" relative="1" as="geometry">
            <mxPoint x="415" y="309" as="sourcePoint" />
            <mxPoint x="570" y="309" as="targetPoint" />
          </mxGeometry>
        </mxCell>
        <mxCell id="J9Y-vJ6aNMcpI7hS-cD3-245" value="&lt;font style=&quot;font-size: 8px;&quot;&gt;issue_a_rb_value_r[31:0]&lt;/font&gt;" style="text;strokeColor=none;align=center;fillColor=none;html=1;verticalAlign=middle;whiteSpace=wrap;rounded=0;" vertex="1" parent="1">
          <mxGeometry x="473" y="297" width="95" height="10" as="geometry" />
        </mxCell>
        <mxCell id="J9Y-vJ6aNMcpI7hS-cD3-246" value="" style="endArrow=none;html=1;rounded=0;entryX=0.25;entryY=1;entryDx=0;entryDy=0;" edge="1" parent="1">
          <mxGeometry width="50" height="50" relative="1" as="geometry">
            <mxPoint x="475" y="399" as="sourcePoint" />
            <mxPoint x="570" y="399" as="targetPoint" />
          </mxGeometry>
        </mxCell>
        <mxCell id="J9Y-vJ6aNMcpI7hS-cD3-247" value="&lt;font style=&quot;font-size: 8px;&quot;&gt;writeback_exec1_value_i[31:0]&lt;/font&gt;" style="text;strokeColor=none;align=center;fillColor=none;html=1;verticalAlign=middle;whiteSpace=wrap;rounded=0;" vertex="1" parent="1">
          <mxGeometry x="453" y="387" width="115" height="10" as="geometry" />
        </mxCell>
        <mxCell id="J9Y-vJ6aNMcpI7hS-cD3-248" value="" style="endArrow=none;html=1;rounded=0;entryX=0.25;entryY=1;entryDx=0;entryDy=0;exitX=0.582;exitY=0.01;exitDx=0;exitDy=0;exitPerimeter=0;" edge="1" parent="1">
          <mxGeometry width="50" height="50" relative="1" as="geometry">
            <mxPoint x="415" y="429" as="sourcePoint" />
            <mxPoint x="570" y="429" as="targetPoint" />
          </mxGeometry>
        </mxCell>
        <mxCell id="J9Y-vJ6aNMcpI7hS-cD3-249" value="&lt;font style=&quot;font-size: 8px;&quot;&gt;ra1_value_o[31:0]&lt;/font&gt;" style="text;strokeColor=none;align=center;fillColor=none;html=1;verticalAlign=middle;whiteSpace=wrap;rounded=0;" vertex="1" parent="1">
          <mxGeometry x="500" y="417" width="65" height="10" as="geometry" />
        </mxCell>
        <mxCell id="J9Y-vJ6aNMcpI7hS-cD3-250" value="" style="endArrow=none;html=1;rounded=0;entryX=0.25;entryY=1;entryDx=0;entryDy=0;" edge="1" parent="1">
          <mxGeometry width="50" height="50" relative="1" as="geometry">
            <mxPoint x="475" y="518" as="sourcePoint" />
            <mxPoint x="570" y="518" as="targetPoint" />
          </mxGeometry>
        </mxCell>
        <mxCell id="J9Y-vJ6aNMcpI7hS-cD3-251" value="&lt;font style=&quot;font-size: 8px;&quot;&gt;writeback_exec1_value_i[31:0]&lt;/font&gt;" style="text;strokeColor=none;align=center;fillColor=none;html=1;verticalAlign=middle;whiteSpace=wrap;rounded=0;" vertex="1" parent="1">
          <mxGeometry x="453" y="506" width="115" height="10" as="geometry" />
        </mxCell>
        <mxCell id="J9Y-vJ6aNMcpI7hS-cD3-252" value="" style="endArrow=none;html=1;rounded=0;entryX=0.25;entryY=1;entryDx=0;entryDy=0;exitX=0.577;exitY=-0.021;exitDx=0;exitDy=0;exitPerimeter=0;" edge="1" parent="1">
          <mxGeometry width="50" height="50" relative="1" as="geometry">
            <mxPoint x="415" y="549" as="sourcePoint" />
            <mxPoint x="570" y="548" as="targetPoint" />
          </mxGeometry>
        </mxCell>
        <mxCell id="J9Y-vJ6aNMcpI7hS-cD3-253" value="&lt;font style=&quot;font-size: 8px;&quot;&gt;rb1_value_o[31:0]&lt;/font&gt;" style="text;strokeColor=none;align=center;fillColor=none;html=1;verticalAlign=middle;whiteSpace=wrap;rounded=0;" vertex="1" parent="1">
          <mxGeometry x="500" y="536" width="65" height="10" as="geometry" />
        </mxCell>
        <mxCell id="J9Y-vJ6aNMcpI7hS-cD3-254" value="" style="endArrow=none;html=1;rounded=0;" edge="1" parent="1">
          <mxGeometry width="50" height="50" relative="1" as="geometry">
            <mxPoint x="575" y="219" as="sourcePoint" />
            <mxPoint x="574.94" y="199" as="targetPoint" />
          </mxGeometry>
        </mxCell>
        <mxCell id="J9Y-vJ6aNMcpI7hS-cD3-255" value="&lt;font style=&quot;font-size: 8px;&quot;&gt;pipe0_rd_e1_w[4:0]==issua_a_ra_idx_w[4:0]&lt;/font&gt;" style="text;strokeColor=none;align=center;fillColor=none;html=1;verticalAlign=middle;whiteSpace=wrap;rounded=0;" vertex="1" parent="1">
          <mxGeometry x="495" y="219" width="160" height="10" as="geometry" />
        </mxCell>
        <mxCell id="J9Y-vJ6aNMcpI7hS-cD3-256" value="" style="endArrow=none;html=1;rounded=0;" edge="1" parent="1">
          <mxGeometry width="50" height="50" relative="1" as="geometry">
            <mxPoint x="575" y="339" as="sourcePoint" />
            <mxPoint x="574.94" y="319" as="targetPoint" />
          </mxGeometry>
        </mxCell>
        <mxCell id="J9Y-vJ6aNMcpI7hS-cD3-257" value="&lt;font style=&quot;font-size: 8px;&quot;&gt;pipe0_rd_e1_w[4:0]==issua_a_rb_idx_w[4:0]&lt;/font&gt;" style="text;strokeColor=none;align=center;fillColor=none;html=1;verticalAlign=middle;whiteSpace=wrap;rounded=0;" vertex="1" parent="1">
          <mxGeometry x="495" y="339" width="160" height="10" as="geometry" />
        </mxCell>
        <mxCell id="J9Y-vJ6aNMcpI7hS-cD3-258" value="" style="endArrow=none;html=1;rounded=0;" edge="1" parent="1">
          <mxGeometry width="50" height="50" relative="1" as="geometry">
            <mxPoint x="575" y="459" as="sourcePoint" />
            <mxPoint x="574.94" y="439" as="targetPoint" />
          </mxGeometry>
        </mxCell>
        <mxCell id="J9Y-vJ6aNMcpI7hS-cD3-259" value="&lt;font style=&quot;font-size: 8px;&quot;&gt;pipe1_rd_e1_w[4:0]==issua_b_ra_idx_w[4:0]&lt;/font&gt;" style="text;strokeColor=none;align=center;fillColor=none;html=1;verticalAlign=middle;whiteSpace=wrap;rounded=0;" vertex="1" parent="1">
          <mxGeometry x="495" y="459" width="160" height="10" as="geometry" />
        </mxCell>
        <mxCell id="J9Y-vJ6aNMcpI7hS-cD3-260" value="" style="endArrow=none;html=1;rounded=0;" edge="1" parent="1">
          <mxGeometry width="50" height="50" relative="1" as="geometry">
            <mxPoint x="575" y="579" as="sourcePoint" />
            <mxPoint x="574.94" y="559" as="targetPoint" />
          </mxGeometry>
        </mxCell>
        <mxCell id="J9Y-vJ6aNMcpI7hS-cD3-261" value="&lt;font style=&quot;font-size: 8px;&quot;&gt;pipe1_rd_e1_w[4:0]==issua_b_rb_idx_w[4:0]&lt;/font&gt;" style="text;strokeColor=none;align=center;fillColor=none;html=1;verticalAlign=middle;whiteSpace=wrap;rounded=0;" vertex="1" parent="1">
          <mxGeometry x="495" y="579" width="160" height="10" as="geometry" />
        </mxCell>
        <mxCell id="J9Y-vJ6aNMcpI7hS-cD3-290" value="" style="shape=trapezoid;perimeter=trapezoidPerimeter;whiteSpace=wrap;html=1;fixedSize=1;rotation=90;size=10;" vertex="1" parent="1">
          <mxGeometry x="710" y="159" width="60" height="10" as="geometry" />
        </mxCell>
        <mxCell id="J9Y-vJ6aNMcpI7hS-cD3-291" value="" style="shape=trapezoid;perimeter=trapezoidPerimeter;whiteSpace=wrap;html=1;fixedSize=1;rotation=90;size=10;" vertex="1" parent="1">
          <mxGeometry x="710" y="279" width="60" height="10" as="geometry" />
        </mxCell>
        <mxCell id="J9Y-vJ6aNMcpI7hS-cD3-292" value="" style="shape=trapezoid;perimeter=trapezoidPerimeter;whiteSpace=wrap;html=1;fixedSize=1;rotation=90;size=10;" vertex="1" parent="1">
          <mxGeometry x="710" y="399" width="60" height="10" as="geometry" />
        </mxCell>
        <mxCell id="J9Y-vJ6aNMcpI7hS-cD3-293" value="" style="shape=trapezoid;perimeter=trapezoidPerimeter;whiteSpace=wrap;html=1;fixedSize=1;rotation=90;size=10;" vertex="1" parent="1">
          <mxGeometry x="710" y="519" width="60" height="10" as="geometry" />
        </mxCell>
        <mxCell id="J9Y-vJ6aNMcpI7hS-cD3-294" value="" style="endArrow=none;html=1;rounded=0;entryX=0.25;entryY=1;entryDx=0;entryDy=0;" edge="1" parent="1" target="J9Y-vJ6aNMcpI7hS-cD3-290">
          <mxGeometry width="50" height="50" relative="1" as="geometry">
            <mxPoint x="640" y="149" as="sourcePoint" />
            <mxPoint x="740" y="149" as="targetPoint" />
          </mxGeometry>
        </mxCell>
        <mxCell id="J9Y-vJ6aNMcpI7hS-cD3-295" value="&lt;font style=&quot;font-size: 8px;&quot;&gt;32&#39;b0&lt;/font&gt;" style="text;strokeColor=none;align=center;fillColor=none;html=1;verticalAlign=middle;whiteSpace=wrap;rounded=0;" vertex="1" parent="1">
          <mxGeometry x="710" y="137" width="20" height="10" as="geometry" />
        </mxCell>
        <mxCell id="J9Y-vJ6aNMcpI7hS-cD3-296" value="" style="endArrow=none;html=1;rounded=0;entryX=0.25;entryY=1;entryDx=0;entryDy=0;exitX=0.59;exitY=0.026;exitDx=0;exitDy=0;exitPerimeter=0;" edge="1" parent="1">
          <mxGeometry width="50" height="50" relative="1" as="geometry">
            <mxPoint x="580" y="179" as="sourcePoint" />
            <mxPoint x="735" y="179" as="targetPoint" />
          </mxGeometry>
        </mxCell>
        <mxCell id="J9Y-vJ6aNMcpI7hS-cD3-297" value="&lt;font style=&quot;font-size: 8px;&quot;&gt;issue_a_ra_value_r[31:0]&lt;/font&gt;" style="text;strokeColor=none;align=center;fillColor=none;html=1;verticalAlign=middle;whiteSpace=wrap;rounded=0;" vertex="1" parent="1">
          <mxGeometry x="637" y="166" width="96" height="10" as="geometry" />
        </mxCell>
        <mxCell id="J9Y-vJ6aNMcpI7hS-cD3-298" value="" style="endArrow=none;html=1;rounded=0;entryX=0.25;entryY=1;entryDx=0;entryDy=0;" edge="1" parent="1">
          <mxGeometry width="50" height="50" relative="1" as="geometry">
            <mxPoint x="640" y="269" as="sourcePoint" />
            <mxPoint x="735" y="269" as="targetPoint" />
          </mxGeometry>
        </mxCell>
        <mxCell id="J9Y-vJ6aNMcpI7hS-cD3-299" value="&lt;font style=&quot;font-size: 8px;&quot;&gt;32&#39;b0&lt;/font&gt;" style="text;strokeColor=none;align=center;fillColor=none;html=1;verticalAlign=middle;whiteSpace=wrap;rounded=0;" vertex="1" parent="1">
          <mxGeometry x="710" y="257" width="23" height="10" as="geometry" />
        </mxCell>
        <mxCell id="J9Y-vJ6aNMcpI7hS-cD3-300" value="" style="endArrow=none;html=1;rounded=0;entryX=0.25;entryY=1;entryDx=0;entryDy=0;exitX=0.579;exitY=0.01;exitDx=0;exitDy=0;exitPerimeter=0;" edge="1" parent="1">
          <mxGeometry width="50" height="50" relative="1" as="geometry">
            <mxPoint x="580" y="299" as="sourcePoint" />
            <mxPoint x="735" y="299" as="targetPoint" />
          </mxGeometry>
        </mxCell>
        <mxCell id="J9Y-vJ6aNMcpI7hS-cD3-301" value="&lt;font style=&quot;font-size: 8px;&quot;&gt;issue_a_rb_value_r[31:0]&lt;/font&gt;" style="text;strokeColor=none;align=center;fillColor=none;html=1;verticalAlign=middle;whiteSpace=wrap;rounded=0;" vertex="1" parent="1">
          <mxGeometry x="638" y="287" width="95" height="10" as="geometry" />
        </mxCell>
        <mxCell id="J9Y-vJ6aNMcpI7hS-cD3-302" value="" style="endArrow=none;html=1;rounded=0;entryX=0.25;entryY=1;entryDx=0;entryDy=0;" edge="1" parent="1">
          <mxGeometry width="50" height="50" relative="1" as="geometry">
            <mxPoint x="640" y="389" as="sourcePoint" />
            <mxPoint x="735" y="389" as="targetPoint" />
          </mxGeometry>
        </mxCell>
        <mxCell id="J9Y-vJ6aNMcpI7hS-cD3-303" value="&lt;font style=&quot;font-size: 8px;&quot;&gt;32&#39;b0&lt;/font&gt;" style="text;strokeColor=none;align=center;fillColor=none;html=1;verticalAlign=middle;whiteSpace=wrap;rounded=0;" vertex="1" parent="1">
          <mxGeometry x="710" y="377" width="23" height="10" as="geometry" />
        </mxCell>
        <mxCell id="J9Y-vJ6aNMcpI7hS-cD3-304" value="" style="endArrow=none;html=1;rounded=0;entryX=0.25;entryY=1;entryDx=0;entryDy=0;exitX=0.582;exitY=0.01;exitDx=0;exitDy=0;exitPerimeter=0;" edge="1" parent="1">
          <mxGeometry width="50" height="50" relative="1" as="geometry">
            <mxPoint x="580" y="419" as="sourcePoint" />
            <mxPoint x="735" y="419" as="targetPoint" />
          </mxGeometry>
        </mxCell>
        <mxCell id="J9Y-vJ6aNMcpI7hS-cD3-305" value="&lt;font style=&quot;font-size: 8px;&quot;&gt;issue_b_ra_value_r[31:0]&lt;/font&gt;" style="text;strokeColor=none;align=center;fillColor=none;html=1;verticalAlign=middle;whiteSpace=wrap;rounded=0;" vertex="1" parent="1">
          <mxGeometry x="643" y="407" width="90" height="10" as="geometry" />
        </mxCell>
        <mxCell id="J9Y-vJ6aNMcpI7hS-cD3-306" value="" style="endArrow=none;html=1;rounded=0;entryX=0.25;entryY=1;entryDx=0;entryDy=0;" edge="1" parent="1">
          <mxGeometry width="50" height="50" relative="1" as="geometry">
            <mxPoint x="640" y="508" as="sourcePoint" />
            <mxPoint x="735" y="508" as="targetPoint" />
          </mxGeometry>
        </mxCell>
        <mxCell id="J9Y-vJ6aNMcpI7hS-cD3-307" value="&lt;font style=&quot;font-size: 8px;&quot;&gt;32&#39;b0&lt;/font&gt;" style="text;strokeColor=none;align=center;fillColor=none;html=1;verticalAlign=middle;whiteSpace=wrap;rounded=0;" vertex="1" parent="1">
          <mxGeometry x="710" y="496" width="23" height="10" as="geometry" />
        </mxCell>
        <mxCell id="J9Y-vJ6aNMcpI7hS-cD3-308" value="" style="endArrow=none;html=1;rounded=0;entryX=0.25;entryY=1;entryDx=0;entryDy=0;exitX=0.577;exitY=-0.021;exitDx=0;exitDy=0;exitPerimeter=0;" edge="1" parent="1">
          <mxGeometry width="50" height="50" relative="1" as="geometry">
            <mxPoint x="580" y="539" as="sourcePoint" />
            <mxPoint x="735" y="538" as="targetPoint" />
          </mxGeometry>
        </mxCell>
        <mxCell id="J9Y-vJ6aNMcpI7hS-cD3-309" value="&lt;font style=&quot;font-size: 8px;&quot;&gt;issue_b_rb_value_r[31:0]&lt;/font&gt;" style="text;strokeColor=none;align=center;fillColor=none;html=1;verticalAlign=middle;whiteSpace=wrap;rounded=0;" vertex="1" parent="1">
          <mxGeometry x="640" y="526" width="90" height="10" as="geometry" />
        </mxCell>
        <mxCell id="J9Y-vJ6aNMcpI7hS-cD3-310" value="" style="endArrow=none;html=1;rounded=0;" edge="1" parent="1">
          <mxGeometry width="50" height="50" relative="1" as="geometry">
            <mxPoint x="740" y="209" as="sourcePoint" />
            <mxPoint x="739.94" y="189" as="targetPoint" />
          </mxGeometry>
        </mxCell>
        <mxCell id="J9Y-vJ6aNMcpI7hS-cD3-311" value="&lt;font style=&quot;font-size: 8px;&quot;&gt;issue_a_ra_idx_w==5&#39;b0&lt;/font&gt;" style="text;strokeColor=none;align=center;fillColor=none;html=1;verticalAlign=middle;whiteSpace=wrap;rounded=0;" vertex="1" parent="1">
          <mxGeometry x="660" y="209" width="160" height="10" as="geometry" />
        </mxCell>
        <mxCell id="J9Y-vJ6aNMcpI7hS-cD3-312" value="" style="endArrow=none;html=1;rounded=0;" edge="1" parent="1">
          <mxGeometry width="50" height="50" relative="1" as="geometry">
            <mxPoint x="740" y="329" as="sourcePoint" />
            <mxPoint x="739.94" y="309" as="targetPoint" />
          </mxGeometry>
        </mxCell>
        <mxCell id="J9Y-vJ6aNMcpI7hS-cD3-313" value="&lt;font style=&quot;font-size: 8px;&quot;&gt;issue_a_rb_idx==5&#39;b0&lt;/font&gt;" style="text;strokeColor=none;align=center;fillColor=none;html=1;verticalAlign=middle;whiteSpace=wrap;rounded=0;" vertex="1" parent="1">
          <mxGeometry x="660" y="329" width="160" height="10" as="geometry" />
        </mxCell>
        <mxCell id="J9Y-vJ6aNMcpI7hS-cD3-314" value="" style="endArrow=none;html=1;rounded=0;" edge="1" parent="1">
          <mxGeometry width="50" height="50" relative="1" as="geometry">
            <mxPoint x="740" y="449" as="sourcePoint" />
            <mxPoint x="739.94" y="429" as="targetPoint" />
          </mxGeometry>
        </mxCell>
        <mxCell id="J9Y-vJ6aNMcpI7hS-cD3-315" value="&lt;font style=&quot;font-size: 8px;&quot;&gt;issue_b_ra_idx_w==5&#39;b0&lt;/font&gt;" style="text;strokeColor=none;align=center;fillColor=none;html=1;verticalAlign=middle;whiteSpace=wrap;rounded=0;" vertex="1" parent="1">
          <mxGeometry x="660" y="449" width="160" height="10" as="geometry" />
        </mxCell>
        <mxCell id="J9Y-vJ6aNMcpI7hS-cD3-316" value="" style="endArrow=none;html=1;rounded=0;" edge="1" parent="1">
          <mxGeometry width="50" height="50" relative="1" as="geometry">
            <mxPoint x="740" y="569" as="sourcePoint" />
            <mxPoint x="739.94" y="549" as="targetPoint" />
          </mxGeometry>
        </mxCell>
        <mxCell id="J9Y-vJ6aNMcpI7hS-cD3-317" value="&lt;font style=&quot;font-size: 8px;&quot;&gt;issue_b_rb_idx_w==5&#39;b0&lt;/font&gt;" style="text;strokeColor=none;align=center;fillColor=none;html=1;verticalAlign=middle;whiteSpace=wrap;rounded=0;" vertex="1" parent="1">
          <mxGeometry x="660" y="569" width="160" height="10" as="geometry" />
        </mxCell>
        <mxCell id="J9Y-vJ6aNMcpI7hS-cD3-318" value="" style="endArrow=classic;html=1;rounded=0;exitX=0.597;exitY=0.004;exitDx=0;exitDy=0;exitPerimeter=0;endFill=1;" edge="1" parent="1" source="J9Y-vJ6aNMcpI7hS-cD3-290">
          <mxGeometry width="50" height="50" relative="1" as="geometry">
            <mxPoint x="800" y="176" as="sourcePoint" />
            <mxPoint x="870" y="170" as="targetPoint" />
          </mxGeometry>
        </mxCell>
        <mxCell id="J9Y-vJ6aNMcpI7hS-cD3-319" value="" style="endArrow=classic;html=1;rounded=0;exitX=0.597;exitY=0.004;exitDx=0;exitDy=0;exitPerimeter=0;endFill=1;" edge="1" parent="1">
          <mxGeometry width="50" height="50" relative="1" as="geometry">
            <mxPoint x="745" y="289" as="sourcePoint" />
            <mxPoint x="870" y="289" as="targetPoint" />
          </mxGeometry>
        </mxCell>
        <mxCell id="J9Y-vJ6aNMcpI7hS-cD3-320" value="" style="endArrow=classic;html=1;rounded=0;exitX=0.597;exitY=0.004;exitDx=0;exitDy=0;exitPerimeter=0;endFill=1;" edge="1" parent="1">
          <mxGeometry width="50" height="50" relative="1" as="geometry">
            <mxPoint x="745" y="409" as="sourcePoint" />
            <mxPoint x="870" y="409" as="targetPoint" />
          </mxGeometry>
        </mxCell>
        <mxCell id="J9Y-vJ6aNMcpI7hS-cD3-321" value="" style="endArrow=classic;html=1;rounded=0;exitX=0.597;exitY=0.004;exitDx=0;exitDy=0;exitPerimeter=0;endFill=1;" edge="1" parent="1">
          <mxGeometry width="50" height="50" relative="1" as="geometry">
            <mxPoint x="745" y="529" as="sourcePoint" />
            <mxPoint x="870" y="529" as="targetPoint" />
          </mxGeometry>
        </mxCell>
        <mxCell id="J9Y-vJ6aNMcpI7hS-cD3-322" value="&lt;font style=&quot;font-size: 8px;&quot;&gt;opcode0_ra_oprand_o[31:0]&lt;/font&gt;" style="text;strokeColor=none;align=center;fillColor=none;html=1;verticalAlign=middle;whiteSpace=wrap;rounded=0;" vertex="1" parent="1">
          <mxGeometry x="873" y="164" width="100" height="10" as="geometry" />
        </mxCell>
        <mxCell id="J9Y-vJ6aNMcpI7hS-cD3-323" value="&lt;font style=&quot;font-size: 8px;&quot;&gt;opcode0_rb_oprand_o[31:0]&lt;/font&gt;" style="text;strokeColor=none;align=center;fillColor=none;html=1;verticalAlign=middle;whiteSpace=wrap;rounded=0;" vertex="1" parent="1">
          <mxGeometry x="873" y="283" width="100" height="10" as="geometry" />
        </mxCell>
        <mxCell id="J9Y-vJ6aNMcpI7hS-cD3-324" value="&lt;font style=&quot;font-size: 8px;&quot;&gt;opcode1_ra_oprand_o[31:0]&lt;/font&gt;" style="text;strokeColor=none;align=center;fillColor=none;html=1;verticalAlign=middle;whiteSpace=wrap;rounded=0;" vertex="1" parent="1">
          <mxGeometry x="873" y="402" width="100" height="10" as="geometry" />
        </mxCell>
        <mxCell id="J9Y-vJ6aNMcpI7hS-cD3-325" value="&lt;font style=&quot;font-size: 8px;&quot;&gt;opcode1_rb_oprand_o[31:0]&lt;/font&gt;" style="text;strokeColor=none;align=center;fillColor=none;html=1;verticalAlign=middle;whiteSpace=wrap;rounded=0;" vertex="1" parent="1">
          <mxGeometry x="873" y="523" width="100" height="10" as="geometry" />
        </mxCell>
      </root>
    </mxGraphModel>
  </diagram>
</mxfile>
